<?xml version="1.0" standalone="no"?>
<!DOCTYPE svg PUBLIC "-//W3C//DTD SVG 1.1//EN" "http://www.w3.org/Graphics/SVG/1.1/DTD/svg11.dtd" >
<svg xmlns="http://www.w3.org/2000/svg">
<metadata></metadata>
<defs>
<font id="dax-mediumregular" horiz-adv-x="1118" >
<font-face units-per-em="2048" ascent="1638" descent="-410" />
<missing-glyph horiz-adv-x="557" />
<glyph horiz-adv-x="0" />
<glyph unicode="&#xd;" horiz-adv-x="557" />
<glyph unicode=" "  horiz-adv-x="557" />
<glyph unicode="&#x09;" horiz-adv-x="557" />
<glyph unicode="&#xa0;" horiz-adv-x="557" />
<glyph unicode="!" horiz-adv-x="636" d="M190 137q0 61 44.5 105.5t105.5 44.5t105 -44t44 -106q0 -61 -43 -106t-106 -45t-106.5 43t-43.5 108zM190 1409h297l-53 -926h-190z" />
<glyph unicode="&#x22;" horiz-adv-x="845" d="M129 1374q41 55 113 56q70 0 112 -56l-49 -543h-129zM492 1376q43 53 112 54q70 0 113 -54l-49 -545h-129z" />
<glyph unicode="#" d="M66 455v123h215l51 288h-195v123h215l74 420h141l-73 -420h223l71 420h142l-74 -418h197v-125h-217l-54 -288h197v-123h-217l-78 -455h-141l78 455h-220l-82 -455h-139l78 455h-192zM422 578h219l53 288h-221z" />
<glyph unicode="$" d="M156 61l61 172q41 -25 103.5 -44t132.5 -19q102 0 164.5 60.5t62.5 164.5q0 84 -51 139.5t-256 137.5t-205 344q0 156 94 269.5t258 133.5l-20 242h145l-20 -238q80 0 144.5 -20.5t115.5 -52.5l-54 -148q-45 27 -98 43.5t-115 16.5q-94 0 -151 -57.5t-57 -153.5 q0 -90 54 -140.5t191.5 -110t210 -159.5t72.5 -231q0 -166 -98.5 -278.5t-264.5 -139.5l23 -258h-152l21 252q-106 0 -180 19.5t-131 55.5z" />
<glyph unicode="%" horiz-adv-x="1783" d="M129 946q0 207 62.5 345.5t230.5 138.5q164 0 229.5 -141.5t65.5 -342.5t-64.5 -341t-230.5 -140q-164 0 -228.5 140t-64.5 341zM293 952q0 -164 25.5 -264t103.5 -100q80 0 105.5 98t25.5 266t-25.5 269.5t-105.5 101.5q-61 0 -95 -77t-34 -294zM588 14l479 1411 l125 -32l-479 -1411zM1067 463q0 205 63.5 344t229.5 139q164 0 229.5 -142t65.5 -341q0 -203 -64.5 -343t-230.5 -140q-164 0 -228.5 140t-64.5 343zM1231 469q0 -166 24.5 -266.5t104.5 -100.5q61 0 96 78t35 289q0 166 -25.5 267.5t-105.5 101.5q-61 0 -95 -77t-34 -292z " />
<glyph unicode="&#x26;" horiz-adv-x="1298" d="M96 389q0 147 94.5 250.5t245.5 151.5q-250 90 -250 309q0 145 111 237.5t297 92.5q100 0 181 -22t138 -56l-73 -146q-35 20 -88.5 35.5t-106.5 15.5q-209 0 -209 -180q0 -88 66.5 -140t171.5 -52q119 0 256 43t276 116l74 -153q-31 -14 -105.5 -42t-119.5 -38v-750 q-61 -39 -166 -60t-246 -21q-254 0 -400.5 107.5t-146.5 301.5zM365 403q0 -129 71.5 -196.5t218.5 -67.5q100 0 156 25v600q-238 -55 -342 -134t-104 -227z" />
<glyph unicode="'" horiz-adv-x="485" d="M129 1374q41 55 113 56q72 0 114 -56l-51 -543h-127z" />
<glyph unicode="(" horiz-adv-x="780" d="M125 586q0 266 112.5 515t364.5 533l121 -69q-158 -219 -246 -465t-88 -514q0 -274 86 -514t248 -469l-119 -68q-250 283 -364.5 535t-114.5 516z" />
<glyph unicode=")" horiz-adv-x="780" d="M57 -397q160 225 247 468.5t87 514.5q0 268 -88 512.5t-246 466.5l119 69q248 -281 363.5 -533.5t115.5 -514.5q0 -266 -113.5 -516t-365.5 -535z" />
<glyph unicode="*" horiz-adv-x="905" d="M100 1368q0 43 29 71.5t72 28.5q41 0 69.5 -28.5t28.5 -71.5t-28.5 -71.5t-71.5 -28.5q-41 0 -70 28.5t-29 71.5zM186 1073q0 43 30 73t71 30q43 0 70.5 -30t27.5 -73q0 -41 -27.5 -70.5t-70.5 -29.5q-41 0 -71 29.5t-30 70.5zM354 1548q0 41 29 72t70 31t69.5 -29 t28.5 -74q0 -41 -28.5 -69.5t-69.5 -28.5t-70 28.5t-29 69.5zM371 1286q0 37 22.5 59.5t59.5 22.5q35 0 58.5 -23.5t23.5 -58.5q0 -37 -23.5 -60.5t-58.5 -23.5q-33 0 -57.5 24.5t-24.5 59.5zM516 1073q0 43 28.5 72t71.5 29q41 0 70 -29t29 -72t-29 -71.5t-72 -28.5 q-41 0 -69.5 28.5t-28.5 71.5zM606 1366q0 41 29 71.5t70 30.5t70.5 -29.5t29.5 -72.5t-28.5 -71.5t-71.5 -28.5q-41 0 -70 28.5t-29 71.5z" />
<glyph unicode="+" d="M156 600v164h321v340h164v-340h322v-164h-322v-342h-164v342h-321z" />
<glyph unicode="," horiz-adv-x="577" d="M12 -346l183 549q27 33 64.5 52t90.5 19q49 0 75 -19t32 -52l-297 -549h-148z" />
<glyph unicode="-" horiz-adv-x="716" d="M109 594v190h499v-190h-499z" />
<glyph unicode="." horiz-adv-x="542" d="M121 137q0 63 44 107.5t107 44.5q61 0 105.5 -44t44.5 -108q0 -61 -44.5 -105t-105.5 -44t-106 43t-45 106z" />
<glyph unicode="/" horiz-adv-x="1171" d="M25 -393l966 2025l156 -76l-967 -2025z" />
<glyph unicode="0" d="M104 705q0 291 103.5 508t351.5 217t351.5 -215.5t103.5 -509.5q0 -291 -103.5 -508t-351.5 -217t-351.5 215t-103.5 510zM344 707q0 -322 58.5 -442t156.5 -120q125 0 170 160t45 402q0 324 -58.5 445.5t-156.5 121.5q-125 0 -170 -163t-45 -404z" />
<glyph unicode="1" d="M162 1194q180 23 294.5 83t157.5 132h179v-1409h-254v1128q-59 -33 -154.5 -58.5t-191.5 -25.5z" />
<glyph unicode="2" d="M72 0l487 700q72 102 99.5 176t27.5 142q0 229 -258 229q-86 0 -143.5 -14t-110.5 -43l-61 160q68 35 163 57.5t216 22.5q223 0 340.5 -111t117.5 -275q0 -158 -182 -399l-332 -438h527v-207h-891z" />
<glyph unicode="3" d="M78 57l67 168q47 -25 118 -42t157 -17q129 0 204.5 65.5t75.5 186.5q0 152 -110.5 207t-263.5 55v135q156 14 244.5 81t88.5 173q0 92 -60 137t-157 45q-74 0 -145.5 -15t-118.5 -40l-63 156q63 33 157.5 55.5t208.5 22.5q193 0 311.5 -88.5t118.5 -243.5 q0 -117 -74.5 -194t-168.5 -111q133 -43 217 -131.5t84 -243.5q0 -197 -141.5 -317.5t-362.5 -120.5q-131 0 -225.5 19t-161.5 58z" />
<glyph unicode="4" d="M104 299v154l560 956h243v-969h109v-141h-109v-299h-235v299h-568zM268 440h404l2 518l4 207q-18 -35 -43 -85t-62 -113z" />
<glyph unicode="5" d="M98 57l66 170q45 -25 119.5 -44t156.5 -19q117 0 197 66.5t80 187.5q0 127 -84 201.5t-279 74.5q-86 0 -184 -14l70 729h696v-207h-522l-29 -366q25 0 54.5 2t43.5 2q250 0 376 -115t126 -307q0 -186 -140.5 -312t-365.5 -126q-244 0 -381 77z" />
<glyph unicode="6" d="M111 518q0 287 123.5 480.5t291.5 296t295 126.5l64 -164q-154 -47 -285 -146t-207 -288q76 29 166 29q197 0 327 -105.5t130 -324.5q0 -193 -119 -317.5t-330 -124.5q-227 0 -341.5 148t-114.5 390zM342 512q0 -168 55.5 -267.5t173.5 -99.5q106 0 157.5 83t51.5 206 q0 289 -270 289q-51 0 -82 -6t-70 -23q-16 -84 -16 -182z" />
<glyph unicode="7" d="M121 1202v207h932l-185 -436q-119 -279 -212 -545t-132 -428h-307l533 1202h-629z" />
<glyph unicode="8" d="M104 342q0 121 69 210t226 181q-133 82 -193.5 164t-60.5 188q0 152 119 248.5t295 96.5q174 0 294 -95.5t120 -247.5q0 -109 -58.5 -187.5t-195.5 -158.5q158 -96 226.5 -186t68.5 -211q0 -164 -127 -264t-328 -100q-195 0 -325 96t-130 266zM324 348q0 -90 66.5 -150.5 t164.5 -60.5q100 0 164.5 58.5t64.5 150.5q0 94 -44 156.5t-187 144.5q-137 -80 -183 -143.5t-46 -155.5zM360 1090q0 -82 42 -136.5t163 -128.5q115 70 159 126.5t44 135.5q0 86 -58.5 142.5t-146.5 56.5q-90 0 -146.5 -54t-56.5 -142z" />
<glyph unicode="9" d="M102 979q0 193 121 317.5t332 124.5q227 0 340 -147.5t113 -390.5q0 -285 -125 -480.5t-290 -296.5t-296 -126l-64 165q154 45 285 144.5t207 288.5q-43 -14 -81 -21.5t-85 -7.5q-197 0 -327 105.5t-130 324.5zM336 975q0 -289 270 -289q47 0 82 8t70 23q8 35 12 83t4 97 q0 166 -55 267.5t-174 101.5q-106 0 -157.5 -84t-51.5 -207z" />
<glyph unicode=":" horiz-adv-x="542" d="M121 137q0 63 44 107.5t107 44.5q61 0 105.5 -44t44.5 -108q0 -61 -44.5 -105t-105.5 -44t-106 43t-45 106zM121 776q0 61 44 105.5t107 44.5q61 0 105.5 -44t44.5 -106q0 -61 -43.5 -106t-106.5 -45t-107 44t-44 107z" />
<glyph unicode=";" horiz-adv-x="577" d="M12 -346l183 549q27 35 64.5 55.5t88.5 20.5q49 0 76 -21.5t33 -54.5l-297 -549h-148zM156 776q0 61 44 105.5t105 44.5t106.5 -43t45.5 -107q0 -63 -44.5 -107t-107.5 -44q-61 0 -105 44t-44 107z" />
<glyph unicode="&#x3c;" d="M156 610v152l807 348v-178l-609 -246l609 -246v-178z" />
<glyph unicode="=" d="M156 401v164h807v-164h-807zM156 797v164h807v-164h-807z" />
<glyph unicode="&#x3e;" d="M156 262v178l608 246l-608 246v178l807 -348v-152z" />
<glyph unicode="?" horiz-adv-x="864" d="M80 1348q61 35 143 56t180 21q201 0 318 -92t117 -248q0 -127 -94 -214.5t-205 -122.5l-23 -265h-188l-31 340q117 25 197.5 85.5t80.5 154.5q0 84 -54 136t-165 52q-63 0 -113 -14t-96 -37zM274 137q0 61 44 105.5t106 44.5q61 0 105 -44t44 -106q0 -63 -43 -106 t-106 -43t-106.5 43t-43.5 106z" />
<glyph unicode="@" horiz-adv-x="1779" d="M119 461q0 395 272.5 683t661.5 288q268 0 436 -158t168 -426q0 -242 -128 -478.5t-337 -236.5q-72 0 -110 42t-46 138q-117 -176 -309 -176q-125 0 -188.5 92.5t-63.5 231.5q0 195 117 378t305 183q86 0 142.5 -45t90.5 -127l29 137h125l-78 -360q-16 -70 -30.5 -141.5 t-14.5 -125.5q0 -68 15.5 -94t58.5 -26q119 0 215 206.5t96 399.5q0 231 -138 365.5t-366 134.5q-344 0 -578.5 -268.5t-234.5 -620.5q0 -303 182.5 -470t481.5 -167q223 0 380 75.5t300 227.5l57 -72q-147 -160 -321 -239.5t-418 -79.5q-350 0 -561 192.5t-211 536.5z M612 463q0 -96 45 -157.5t125 -61.5q135 0 218 152.5t83 295.5q0 106 -50 167t-126 61q-137 0 -216 -154t-79 -303z" />
<glyph unicode="A" horiz-adv-x="1226" d="M25 0l467 1409h245l465 -1409h-268l-109 362h-454l-113 -362h-233zM412 514h376l-145 496q-14 51 -22.5 97t-14.5 73q-4 -27 -11 -60t-32 -110z" />
<glyph unicode="B" horiz-adv-x="1189" d="M145 59v1291q66 35 170.5 57.5t231.5 22.5q248 0 378 -100.5t130 -264.5q0 -131 -79 -214t-183 -106q117 -29 213 -124t96 -236q0 -205 -144.5 -305t-394.5 -100q-268 0 -418 79zM391 166q66 -27 164 -27q135 0 211 58.5t76 191.5q0 150 -86 217.5t-285 67.5l-80 -2v-506 zM391 801l80 -2q184 0 259 58t75 192q0 233 -258 233q-84 0 -156 -25v-456z" />
<glyph unicode="C" horiz-adv-x="993" d="M100 705q0 305 143.5 515t399.5 210q96 0 166 -19.5t125 -60.5l-57 -156q-35 20 -81 34.5t-102 14.5q-168 0 -245.5 -153.5t-77.5 -382.5q0 -227 79.5 -378t243.5 -151q59 0 98 11.5t80 37.5l62 -168q-103 -79 -293 -79q-258 0 -399.5 206.5t-141.5 518.5z" />
<glyph unicode="D" horiz-adv-x="1241" d="M145 59v1291q72 37 170.5 58.5t214.5 21.5q309 0 460 -191.5t151 -523.5q0 -336 -145.5 -535.5t-450.5 -199.5q-260 0 -400 79zM403 180q25 -8 60 -14t78 -6q178 0 257 134t79 425q0 279 -81 410t-259 131q-80 0 -134 -21v-1059z" />
<glyph unicode="E" horiz-adv-x="923" d="M145 0v1409h686v-174h-425v-426h378v-172h-378v-463h425v-174h-686z" />
<glyph unicode="F" horiz-adv-x="907" d="M145 0v1409h684v-174h-423v-426h376v-172h-376v-637h-261z" />
<glyph unicode="G" horiz-adv-x="1226" d="M100 713q0 334 171 525.5t450 191.5q117 0 203 -20.5t149 -57.5l-78 -160q-39 23 -97 38t-146 15q-186 0 -286.5 -134t-100.5 -411q0 -258 94 -399t246 -141q53 0 85.5 7t55.5 19v463h-203v160h449v-750q-70 -41 -156 -60t-221 -19q-287 0 -451 191t-164 542z" />
<glyph unicode="H" horiz-adv-x="1255" d="M145 0v1409h261v-600h444v600h260v-1409h-260v637h-444v-637h-261z" />
<glyph unicode="I" horiz-adv-x="561" d="M150 0v1409h262v-1409h-262z" />
<glyph unicode="J" horiz-adv-x="561" d="M-84 -268q102 23 168 105.5t66 215.5v1356h262v-1333q0 -236 -138.5 -371.5t-357.5 -155.5v183z" />
<glyph unicode="K" horiz-adv-x="1136" d="M150 0v1409h260v-643l407 643h266l-440 -651l465 -758h-291l-403 713l-4 -713h-260z" />
<glyph unicode="L" horiz-adv-x="864" d="M150 0v1409h262v-1235h389v-174h-651z" />
<glyph unicode="M" horiz-adv-x="1617" d="M94 0l158 1409h262l252 -903q10 -41 21.5 -92.5t15.5 -65.5q6 27 14 60.5t27 97.5l260 903h262l158 -1409h-246l-90 932q-4 51 -5 95t-1 75q-8 -31 -17.5 -69t-35 -127t-96 -336.5t-111.5 -392t-54 -177.5h-147q-37 129 -87 304t-98.5 344t-73 256t-34.5 134t-14 64 q-2 -31 -3 -69t-8 -99l-90 -934h-219z" />
<glyph unicode="N" horiz-adv-x="1331" d="M145 0v1409h246l504 -856q31 -51 49.5 -90t26.5 -53q0 31 -1 57.5t-1 60.5v31v850h217v-1409h-209l-535 909q-35 59 -51 93t-31 65q2 -31 3.5 -71t1.5 -93v-903h-220z" />
<glyph unicode="O" horiz-adv-x="1259" d="M100 705q0 322 130 523.5t401 201.5q268 0 398 -202t130 -523q0 -326 -129 -525.5t-399 -199.5t-400.5 199.5t-130.5 525.5zM365 713q0 -238 57 -389.5t209 -151.5t208 151.5t56 389.5q0 240 -57 392t-207 152t-208 -152.5t-58 -391.5z" />
<glyph unicode="P" horiz-adv-x="1124" d="M145 0v1350q68 35 170.5 57.5t219.5 22.5q260 0 387 -119t127 -320q0 -203 -145.5 -320.5t-448.5 -117.5l-56 4v-557h-254zM399 711l54 -4q186 0 266 68.5t80 217.5q0 145 -63 216t-206 71q-49 0 -75.5 -5t-55.5 -18v-546z" />
<glyph unicode="Q" horiz-adv-x="1259" d="M100 707q0 319 130 521t401 202q270 0 399 -199t129 -524q0 -223 -60.5 -388.5t-197.5 -261.5l234 -288l-191 -170l-199 399q-59 -14 -114 -14q-270 0 -400.5 199.5t-130.5 523.5zM365 717q0 -240 55 -391.5t211 -151.5q152 0 209 152.5t57 390.5t-57 389t-209 151 q-150 0 -208 -153.5t-58 -386.5z" />
<glyph unicode="R" horiz-adv-x="1159" d="M150 0v1350q74 37 170 58.5t215 21.5q258 0 389 -113t131 -316q0 -162 -105.5 -267t-271.5 -105l420 -629h-289l-399 639l-4 -639h-256zM406 702q20 -8 46.5 -9t49.5 -1q150 0 224.5 76t74.5 221q0 150 -62.5 220.5t-203.5 70.5q-76 0 -129 -25v-553z" />
<glyph unicode="S" horiz-adv-x="970" d="M76 59l63 183q43 -29 102.5 -47.5t133.5 -18.5q102 0 163.5 59.5t61.5 157.5q0 80 -50 134.5t-189.5 112.5t-205 157.5t-65.5 218.5q0 174 116 294t306 120q102 0 179 -22t130 -58l-57 -160q-43 27 -98.5 45t-118.5 18q-96 0 -149.5 -55t-53.5 -149q0 -84 54.5 -136.5 t200.5 -114t210.5 -162.5t64.5 -226q0 -188 -126.5 -309t-323.5 -121q-123 0 -204 19t-144 60z" />
<glyph unicode="T" horiz-adv-x="911" d="M63 1235v174h787v-174h-264v-1235h-260v1235h-263z" />
<glyph unicode="U" horiz-adv-x="1220" d="M145 410v999h261v-997q0 -111 61 -172.5t154 -61.5q94 0 153.5 61.5t59.5 172.5v997h241v-999q0 -190 -129 -311.5t-336 -121.5q-209 0 -337 120t-128 313z" />
<glyph unicode="V" horiz-adv-x="1124" d="M31 1409h276l230 -905q14 -57 23 -107.5t13 -70.5q8 35 16.5 71.5t24.5 106.5l234 905h248l-416 -1409h-225z" />
<glyph unicode="W" horiz-adv-x="1697" d="M59 1409h260l175 -922l24 -159q2 18 6 39.5t27 119.5l213 922h192l211 -922q10 -49 16.5 -95t10.5 -64q6 33 12 74.5t15 84.5l182 922h239l-323 -1409h-229l-211 862q-12 49 -17.5 92t-9.5 62q-4 -27 -8 -55.5t-23 -98.5l-209 -862h-229z" />
<glyph unicode="X" horiz-adv-x="1101" d="M31 0l381 721l-342 688h280l205 -477l236 477h247l-350 -657l383 -752h-291l-235 520l-248 -520h-266z" />
<glyph unicode="Y" horiz-adv-x="1054" d="M18 1409h277l242 -584l256 584h247l-383 -801v-608h-260v608z" />
<glyph unicode="Z" horiz-adv-x="925" d="M43 0l479 1235h-440v174h764l-467 -1235h479v-174h-815z" />
<glyph unicode="[" horiz-adv-x="724" d="M145 -440v2048h492v-144h-270v-1759h270v-145h-492z" />
<glyph unicode="\" horiz-adv-x="1179" d="M25 1554l157 78l973 -2023l-158 -78z" />
<glyph unicode="]" horiz-adv-x="724" d="M88 -295h270v1759h-270v144h492v-2048h-492v145z" />
<glyph unicode="^" horiz-adv-x="1218" d="M180 954l314 412q47 59 116 59q29 0 60.5 -15t54.5 -44l313 -412l-96 -94l-332 375l-334 -375z" />
<glyph unicode="_" d="M-20 -272h1159v-156h-1159v156z" />
<glyph unicode="`" horiz-adv-x="454" d="M-14 1503q8 23 35.5 33t66.5 10q82 0 143 -37l142 -288h-137z" />
<glyph unicode="a" horiz-adv-x="1062" d="M80 315q0 201 161.5 290t454.5 118v59q0 100 -56 141.5t-163 41.5q-76 0 -143.5 -17.5t-132.5 -50.5l-58 143q72 35 165 59.5t214 24.5q186 0 297 -89t111 -292v-684q-68 -35 -171.5 -57t-228.5 -22q-223 0 -336.5 87t-113.5 248zM315 324q0 -104 59.5 -154.5 t172.5 -50.5q88 0 149 31v454q-197 -25 -289 -82t-92 -198z" />
<glyph unicode="b" horiz-adv-x="1124" d="M133 59v1549h248v-535q43 20 95 32.5t122 12.5q195 0 314.5 -146.5t119.5 -393.5q0 -281 -138 -439.5t-396 -158.5q-123 0 -215.5 21.5t-149.5 57.5zM381 156q51 -23 127 -23q141 0 208.5 113.5t67.5 316.5q0 188 -59.5 299t-194.5 111q-90 0 -149 -33v-784z" />
<glyph unicode="c" horiz-adv-x="851" d="M92 555q0 266 124 417.5t314 151.5q94 0 156 -21.5t100 -53.5l-53 -142q-27 20 -61.5 33.5t-85.5 13.5q-123 0 -182.5 -103t-59.5 -292q0 -184 62.5 -291.5t175.5 -107.5q51 0 84.5 11t64.5 38l57 -154q-37 -35 -101.5 -55t-158.5 -20q-195 0 -315.5 152.5t-120.5 422.5z " />
<glyph unicode="d" horiz-adv-x="1124" d="M92 539q0 266 132 420.5t351 154.5q96 0 166 -20v514h250v-1549q-66 -37 -164 -58t-221 -21q-244 0 -379 147t-135 412zM340 553q0 -197 65.5 -305.5t206.5 -108.5q90 0 129 25v794q-49 14 -110 15q-154 0 -222.5 -112.5t-68.5 -307.5z" />
<glyph unicode="e" horiz-adv-x="1099" d="M92 555q0 268 126 418.5t345 150.5t331 -142t112 -423l-676 -98q31 -307 301 -307q90 0 157.5 16t120.5 45l60 -158q-63 -35 -152.5 -56t-212.5 -21q-238 0 -375 149.5t-137 425.5zM315 588l457 69q0 162 -56.5 238t-160.5 76q-113 0 -176.5 -95.5t-63.5 -287.5z" />
<glyph unicode="f" horiz-adv-x="679" d="M74 944v160h123v133q0 182 112.5 276.5t317.5 94.5v-160q-86 0 -133.5 -43t-47.5 -143v-158h181v-160h-181v-944h-249v944h-123z" />
<glyph unicode="g" d="M92 528q0 276 136.5 436t398.5 160q117 0 210 -21.5t148 -58.5v-1060q0 -217 -121 -332t-332 -115q-121 0 -218 20.5t-158 57.5l69 164q49 -27 121 -46.5t143 -19.5q133 0 193.5 64.5t60.5 183.5v70q-72 -41 -206 -41q-201 0 -323 144.5t-122 393.5zM340 541 q0 -205 62.5 -305.5t199.5 -100.5q82 0 141 35v782q-43 25 -129 25q-141 0 -207.5 -112.5t-66.5 -323.5z" />
<glyph unicode="h" horiz-adv-x="1136" d="M133 0v1608h250v-551q121 59 246 59q193 0 284 -95t91 -239v-782h-250v776q0 82 -45 134.5t-150 52.5q-100 0 -176 -45v-918h-250z" />
<glyph unicode="i" horiz-adv-x="532" d="M129 1417q0 53 40 89t97 36q59 0 98 -34.5t39 -90.5q0 -51 -40 -87t-97 -36t-97 36t-40 87zM141 0v1104h250v-1104h-250z" />
<glyph unicode="j" horiz-adv-x="536" d="M-47 -293q96 33 144 114t48 247v1036h250v-1010q0 -250 -127 -401.5t-315 -151.5v166zM133 1417q0 53 40 89t97 36t97.5 -36t40.5 -89q0 -51 -40.5 -87t-97.5 -36t-97 36t-40 87z" />
<glyph unicode="k" horiz-adv-x="1046" d="M141 0v1608h248v-1004l354 500h254l-381 -506l426 -598h-280l-369 563l-4 -563h-248z" />
<glyph unicode="l" horiz-adv-x="536" d="M143 0v1608h250v-1608h-250z" />
<glyph unicode="m" horiz-adv-x="1757" d="M133 0v1044q84 41 182.5 60.5t231.5 19.5q129 0 210 -30.5t134 -89.5q61 55 147 87.5t207 32.5q186 0 282.5 -97t96.5 -241v-786h-250v784q0 80 -45 130.5t-141 50.5q-109 0 -184 -76v-889h-250v791q0 82 -53.5 129t-153.5 47q-90 0 -164 -31v-936h-250z" />
<glyph unicode="n" horiz-adv-x="1136" d="M133 0v1044q78 37 188.5 58.5t243.5 21.5q229 0 334 -95t105 -243v-786h-250v782q0 80 -45 132.5t-154 52.5q-57 0 -94 -7.5t-78 -23.5v-936h-250z" />
<glyph unicode="o" horiz-adv-x="1101" d="M92 551q0 258 117 415.5t342 157.5t342 -156.5t117 -416.5q0 -256 -117 -413.5t-342 -157.5q-221 0 -340 158.5t-119 412.5zM340 553q0 -182 46 -292.5t165 -110.5q123 0 167 109.5t44 293.5q0 193 -43 303.5t-168 110.5q-121 0 -166 -113t-45 -301z" />
<glyph unicode="p" horiz-adv-x="1124" d="M133 -440v1484q72 39 163 59.5t220 20.5q242 0 379 -147.5t137 -411.5q0 -268 -133 -423.5t-352 -155.5q-45 0 -92 6t-74 16v-448h-248zM381 154q43 -18 111 -19q143 0 217.5 109.5t74.5 312.5q0 209 -62 313.5t-212 104.5q-74 0 -129 -23v-798z" />
<glyph unicode="q" horiz-adv-x="1124" d="M92 524q0 272 132 436t403 164q123 0 212 -21.5t152 -58.5v-1484h-248v469q-41 -20 -92 -32.5t-119 -12.5q-197 0 -318.5 146t-121.5 394zM340 541q0 -197 63.5 -301.5t196.5 -104.5q84 0 143 35v784q-45 23 -129 23q-137 0 -205.5 -113.5t-68.5 -322.5z" />
<glyph unicode="r" horiz-adv-x="696" d="M133 0v1044q86 41 207 59.5t326 18.5l-50 -182q-59 18 -114 18q-74 0 -119 -26v-932h-250z" />
<glyph unicode="s" horiz-adv-x="849" d="M66 61l65 160q31 -25 87 -44t120 -19q76 0 123 43t47 112q0 72 -36 110t-153.5 83t-171 122t-53.5 177q0 133 97.5 226t252.5 93q90 0 160 -19.5t127 -57.5l-61 -146q-31 25 -75 43.5t-101 18.5q-74 0 -116 -42t-42 -104q0 -63 41 -102t157.5 -86t173 -125t56.5 -187 q0 -141 -107.5 -238t-285.5 -97q-94 0 -173 21.5t-132 57.5z" />
<glyph unicode="t" horiz-adv-x="702" d="M74 944v160h123v244l249 69v-313h181v-160h-181v-645q0 -143 121 -143q25 0 60 10v-156q-16 -8 -52 -15t-75 -7q-154 0 -228.5 86t-74.5 213v657h-123z" />
<glyph unicode="u" d="M133 350v754h250v-768q0 -86 45 -136t141 -50q100 0 166 36v918h250v-1038q-72 -39 -181.5 -64t-242.5 -25q-217 0 -322.5 94.5t-105.5 278.5z" />
<glyph unicode="v" horiz-adv-x="1034" d="M43 1104h266l195 -713q12 -45 17 -90t9 -61q4 27 8.5 50t24.5 101l199 713h233l-354 -1104h-238z" />
<glyph unicode="w" horiz-adv-x="1611" d="M57 1104h252l162 -715q12 -51 15 -92t6 -53q6 37 10 61q14 53 22 84l195 715h209l186 -715q14 -53 18.5 -90t8.5 -55q4 29 8 55.5t18 91.5l170 713h222l-308 -1104h-225l-190 692q-12 41 -16.5 78t-6.5 64q-4 -27 -9 -59t-20 -83l-194 -692h-225z" />
<glyph unicode="x" horiz-adv-x="1015" d="M33 0l342 571l-307 533h262l186 -361l199 361h235l-313 -516l346 -588h-274l-207 401l-215 -401h-254z" />
<glyph unicode="y" horiz-adv-x="1034" d="M43 1104h266l191 -715q14 -57 17 -99t5 -59q6 27 12.5 65t22.5 93l205 715h233l-503 -1544h-265l181 440z" />
<glyph unicode="z" horiz-adv-x="876" d="M57 0l420 944h-385v160h696l-405 -944h418v-160h-744z" />
<glyph unicode="{" horiz-adv-x="792" d="M90 612v131q84 0 126 50.5t42 173.5v303q0 180 119 259t313 79v-129q-111 0 -163 -46.5t-52 -150.5v-356q0 -109 -48 -168.5t-134 -77.5q86 -20 134 -82.5t48 -173.5v-356q0 -197 215 -197v-131q-195 0 -313.5 79t-118.5 259v307q0 123 -43 175t-125 52z" />
<glyph unicode="|" horiz-adv-x="489" d="M145 -440v2048h199v-2048h-199z" />
<glyph unicode="}" horiz-adv-x="792" d="M102 -129q111 0 164 47t53 150v356q0 111 48.5 172t132.5 80q-86 20 -133.5 79.5t-47.5 170.5v356q0 197 -217 197v129q195 0 314 -79t119 -259v-303q0 -121 43 -172.5t124 -51.5v-131q-80 0 -123.5 -52t-43.5 -175v-307q0 -182 -118 -260t-315 -78v131z" />
<glyph unicode="~" horiz-adv-x="1218" d="M162 694q35 76 84 120t97 49t69 5q70 0 194.5 -65.5t167.5 -65.5h25q70 8 111.5 46t66.5 96l80 -154q-25 -72 -79.5 -113t-146.5 -53q-10 -2 -30 -2q-70 0 -184.5 64.5t-178.5 64.5h-24q-68 -6 -110 -46t-66 -97z" />
<glyph unicode="&#xa1;" horiz-adv-x="636" d="M190 -440l54 925h190l53 -925h-297zM190 831q0 63 43 106.5t107 43.5q61 0 105 -44t44 -106q0 -61 -44 -105t-105 -44q-63 0 -106.5 43t-43.5 106z" />
<glyph unicode="&#xa2;" d="M176 709q0 203 95.5 329.5t252.5 153.5l-20 215h155l-16 -209q72 0 124 -17.5t89 -45.5l-51 -125q-29 18 -63.5 29.5t-82.5 11.5q-123 0 -182 -89.5t-59 -248.5q0 -160 61.5 -249t177.5 -89q47 0 81 9t67 30l53 -135q-35 -27 -89 -45.5t-130 -18.5l18 -213h-157l22 219 q-162 27 -254 152t-92 336z" />
<glyph unicode="&#xa3;" d="M121 659v146h158q-16 59 -27.5 124.5t-11.5 127.5q0 158 113.5 265.5t314.5 107.5q111 0 194.5 -23t132.5 -53l-57 -154q-33 16 -93.5 33.5t-123.5 17.5q-125 0 -184.5 -69.5t-59.5 -190.5q0 -86 29 -186h278v-146h-254q10 -45 12.5 -76.5t2.5 -84.5q0 -76 -31 -165 t-57 -126h557v-207h-881q100 117 155.5 239.5t55.5 245.5q0 47 -5 84t-22 90h-196z" />
<glyph unicode="&#xa4;" d="M92 322l144 145q-76 104 -76 233q0 131 76 236l-144 143l88 88l146 -143q104 76 233 76q131 0 236 -76l143 143l88 -88l-143 -143q76 -104 75 -236q0 -61 -19 -122.5t-56 -112.5l143 -143l-88 -89l-143 144q-104 -76 -236 -76q-129 0 -233 78l-146 -146zM315 700 q0 -102 71 -172.5t173 -70.5t173 70.5t71 172.5t-71 173t-173 71t-173 -70.5t-71 -173.5z" />
<glyph unicode="&#xa5;" d="M59 1409h260l248 -600l262 600h230l-246 -510l211 14v-112l-248 16l-92 -186l340 14v-115l-346 17l2 -547h-240v547l-348 -17v115l342 -14l-90 186l-252 -16v112l213 -14z" />
<glyph unicode="&#xa6;" horiz-adv-x="489" d="M145 373h199v-813h-199v813zM145 795v813h199v-813h-199z" />
<glyph unicode="&#xa7;" d="M145 553q0 111 65.5 197t166.5 149q-113 106 -113 244q0 117 91 198.5t239 81.5q94 0 163.5 -20.5t119.5 -52.5l-58 -133q-35 20 -81 36.5t-99 16.5q-72 0 -113 -35t-41 -98q0 -53 23.5 -92t99.5 -105l183 -154q102 -86 143 -163.5t41 -176.5q0 -104 -65 -187.5 t-171 -149.5q74 -68 103.5 -132.5t29.5 -136.5q0 -127 -99 -212t-257 -85q-104 0 -172 20.5t-125 59.5l60 150q37 -27 86 -45.5t106 -18.5q74 0 122 36t48 99q0 51 -17.5 86t-80.5 88l-219 185q-100 84 -139.5 163.5t-39.5 186.5zM330 586q0 -125 119 -228l178 -151 q70 45 109.5 96t39.5 119t-23 117t-91 106l-187 160q-63 -41 -104 -94.5t-41 -124.5z" />
<glyph unicode="&#xa8;" horiz-adv-x="454" d="M-74 1354q0 43 35 73.5t82 30.5q49 0 83 -29.5t34 -74.5q0 -43 -34 -75t-83 -32q-47 0 -82 31t-35 76zM293 1354q0 43 34.5 73.5t82.5 30.5q49 0 82.5 -29.5t33.5 -74.5q0 -43 -33.5 -75t-82.5 -32q-47 0 -82 31t-35 76z" />
<glyph unicode="&#xa9;" horiz-adv-x="1667" d="M109 702q0 301 210.5 514.5t514.5 213.5q299 0 512 -213t213 -515q0 -301 -213 -511.5t-512 -210.5t-512 210.5t-213 511.5zM215 702q0 -256 180 -436t439 -180q256 0 436 180t180 436t-180 438.5t-436 182.5q-258 0 -438.5 -182.5t-180.5 -438.5zM410 707 q0 180 124.5 305t305.5 125q100 0 180 -38t145 -114l-88 -74q-47 53 -108.5 83t-128.5 30q-131 0 -223.5 -92t-92.5 -225q0 -129 93.5 -222.5t222.5 -93.5q137 0 237 113l90 -72q-63 -74 -147 -113.5t-180 -39.5q-178 0 -304 125.5t-126 302.5z" />
<glyph unicode="&#xaa;" horiz-adv-x="749" d="M82 918q0 131 104.5 184t300.5 72v32q0 57 -35.5 83t-103.5 26q-47 0 -92 -11.5t-86 -31.5l-39 100q41 20 105.5 35.5t142.5 15.5q125 0 197.5 -55t72.5 -184v-426q-47 -25 -113.5 -39t-150.5 -14q-303 0 -303 213zM240 922q0 -63 38.5 -91t114.5 -28q57 0 94 16v266 q-131 -14 -189 -45.5t-58 -117.5z" />
<glyph unicode="&#xab;" horiz-adv-x="1087" d="M102 684l308 465l135 -82l-252 -383l252 -383l-135 -82zM512 684l307 465l137 -82l-251 -383l251 -383l-137 -82z" />
<glyph unicode="&#xac;" d="M156 602v164h807v-481h-170v317h-637z" />
<glyph unicode="&#xad;" horiz-adv-x="716" d="M109 594v190h499v-190h-499z" />
<glyph unicode="&#xae;" horiz-adv-x="1667" d="M109 702q0 301 210.5 514.5t514.5 213.5q299 0 512 -213t213 -515q0 -301 -213 -511.5t-512 -210.5t-512 210.5t-213 511.5zM215 702q0 -256 180 -436t439 -180q256 0 436 180t180 436q0 258 -180 440.5t-436 182.5q-258 0 -438.5 -182t-180.5 -441zM596 293v819 q90 43 209 43q131 0 212 -66.5t81 -175.5q0 -104 -63.5 -163.5t-172.5 -71.5l277 -385h-142l-260 377h-24v-377h-117zM713 748h63q94 0 147.5 37.5t53.5 127.5q0 80 -53 113t-129 33q-18 0 -43 -4t-39 -8v-299z" />
<glyph unicode="&#xb0;" horiz-adv-x="856" d="M113 1118q0 131 92 223.5t223 92.5t223 -92.5t92 -223.5t-92 -223t-223 -92t-223 92t-92 223zM236 1118q0 -80 56 -136t136 -56t136.5 56t56.5 136t-55.5 135.5t-137.5 55.5q-78 0 -135 -55.5t-57 -135.5z" />
<glyph unicode="&#xb1;" d="M156 141v154h807v-154h-807zM156 743v154h321v328h164v-328h322v-154h-322v-329h-164v329h-321z" />
<glyph unicode="&#xb2;" horiz-adv-x="770" d="M84 545l307 432q47 66 61.5 100.5t14.5 79.5q0 57 -38 93t-116 36t-143 -33l-47 117q96 51 235 51q143 0 217 -68.5t74 -174.5q0 -100 -112 -246l-189 -242h309v-145h-573z" />
<glyph unicode="&#xb3;" horiz-adv-x="770" d="M94 586l49 121q35 -18 73 -28.5t95 -10.5q76 0 117 36.5t41 100.5q0 84 -62.5 115.5t-160.5 31.5v103q201 18 200 139q0 47 -35.5 74.5t-93.5 27.5q-78 0 -147 -34l-47 110q45 25 101.5 38t127.5 13q119 0 192.5 -55t73.5 -154q0 -63 -38.5 -110t-90.5 -72 q74 -29 120 -82t46 -143q0 -121 -89 -198t-226 -77q-150 0 -246 54z" />
<glyph unicode="&#xb4;" horiz-adv-x="454" d="M82 1221l141 288q66 37 148 37q80 0 98 -43l-250 -282h-137z" />
<glyph unicode="&#xb5;" horiz-adv-x="1136" d="M133 -440v1544h250v-918q88 -47 186 -47q70 0 107 8.5t78 28.5v928h250v-1036q-82 -45 -163 -64.5t-206 -19.5q-66 0 -129.5 15t-122.5 46v-485h-250z" />
<glyph unicode="&#xb6;" d="M51 1014q0 201 136.5 298t342.5 97h504v-117h-65v-1732h-162v1732h-246v-1732h-162v1077q-162 23 -255 122t-93 255z" />
<glyph unicode="&#xb8;" horiz-adv-x="454" d="M-47 -410l49 84q55 -6 104 -6q104 0 165 19.5t61 56.5q0 39 -50.5 48t-201.5 9l47 78q66 6 117 6q137 0 197.5 -36.5t60.5 -102.5q0 -80 -97.5 -122t-279.5 -42h-82q-59 6 -90 8z" />
<glyph unicode="&#xb9;" horiz-adv-x="770" d="M139 1278q111 12 180.5 48t98.5 83h125v-864h-176v667q-49 -18 -97.5 -27t-111.5 -9z" />
<glyph unicode="&#xba;" horiz-adv-x="749" d="M68 1067q0 160 78.5 259t228.5 99t228.5 -98t78.5 -260q0 -160 -78.5 -260t-228.5 -100t-228.5 100t-78.5 260zM240 1069q0 -117 28.5 -180.5t106.5 -63.5q76 0 105.5 65.5t29.5 178.5q0 117 -28.5 183.5t-106.5 66.5q-76 0 -105.5 -67.5t-29.5 -182.5z" />
<glyph unicode="&#xbb;" horiz-adv-x="1087" d="M131 301l252 383l-252 383l137 82l305 -465l-305 -465zM543 301l252 383l-252 383l135 82l307 -465l-307 -465z" />
<glyph unicode="&#xbc;" horiz-adv-x="1687" d="M84 1278q104 12 178 49t105 82h122v-864h-176v667q-51 -18 -99 -27t-112 -9zM432 16l658 1434l139 -57l-658 -1436zM975 178v109l344 577h166v-579h65v-107h-65v-178h-168v178h-342zM1087 285h230v286l2 119q-12 -23 -28 -53.5t-34 -63.5z" />
<glyph unicode="&#xbd;" horiz-adv-x="1687" d="M84 1278q104 12 178 49t105 82h122v-864h-176v667q-51 -18 -99 -27t-112 -9zM399 16l658 1434l139 -57l-657 -1436zM981 0l307 426q45 63 59.5 103t14.5 83q0 63 -36 97t-118 34q-66 0 -131 -32l-47 114q57 29 111.5 40.5t111.5 11.5q143 0 217 -70t74 -176 q0 -57 -25.5 -114.5t-86.5 -135.5l-189 -236h307v-145h-569z" />
<glyph unicode="&#xbe;" horiz-adv-x="1687" d="M94 586l49 121q35 -18 74 -28.5t96 -10.5q74 0 115 36.5t41 100.5q0 84 -62.5 115.5t-160.5 31.5v103q201 18 200 139q0 47 -35.5 74.5t-93.5 27.5q-78 0 -147 -34l-47 110q43 23 101.5 37t127.5 14q119 0 192.5 -55t73.5 -154q0 -63 -38.5 -110t-90.5 -72 q74 -29 120 -82t46 -143q0 -121 -89 -198t-226 -77q-150 0 -246 54zM496 16l657 1434l139 -57l-659 -1436zM985 178v109l344 577h166v-579h66v-107h-66v-178h-168v178h-342zM1098 285h229v286l2 119q-10 -20 -21 -45t-40 -72z" />
<glyph unicode="&#xbf;" horiz-adv-x="864" d="M80 -115q0 127 93 215t206 121l22 264h189l31 -338q-117 -25 -198 -85t-81 -156q0 -84 54.5 -136.5t164.5 -52.5q61 0 114.5 16.5t94.5 37.5l68 -148q-59 -35 -145.5 -57.5t-178.5 -22.5q-201 0 -317.5 92.5t-116.5 249.5zM344 834q0 61 44 105t106 44q63 0 106 -43 t43 -106t-43 -106.5t-106 -43.5q-61 0 -105.5 44t-44.5 106z" />
<glyph unicode="&#xc0;" horiz-adv-x="1226" d="M25 0l467 1409h245l465 -1409h-268l-109 362h-454l-113 -362h-233zM305 1798q8 23 36 33t67 10q78 0 143 -39l141 -286h-139zM412 514h376l-145 496q-14 51 -22.5 96t-14.5 70q-4 -25 -11 -57t-32 -109z" />
<glyph unicode="&#xc1;" horiz-adv-x="1226" d="M25 0l467 1409h245l465 -1409h-268l-109 362h-454l-113 -362h-233zM412 514h376l-145 496q-14 51 -22.5 96t-14.5 70q-4 -25 -11 -57t-32 -109zM518 1516l141 286q27 18 68 28.5t78 10.5q82 0 100 -43l-250 -282h-137z" />
<glyph unicode="&#xc2;" horiz-adv-x="1226" d="M25 0l467 1409h245l465 -1409h-268l-109 362h-454l-113 -362h-233zM326 1567l209 211q35 35 77 34q47 0 82 -34l207 -211l-67 -62l-220 158l-219 -158zM412 514h376l-145 496q-14 51 -22.5 96t-14.5 70q-4 -25 -11 -57t-32 -109z" />
<glyph unicode="&#xc3;" horiz-adv-x="1226" d="M25 0l467 1409h245l465 -1409h-268l-109 362h-454l-113 -362h-233zM303 1630q25 55 60.5 86t101.5 31q53 0 145 -41t119 -41q51 0 80 25.5t47 68.5l62 -112q-18 -51 -53 -81t-101 -30h-21q-47 0 -137 40t-135 40q-41 0 -65.5 -26.5t-43.5 -69.5zM412 514h376l-145 496 q-14 51 -22.5 96t-14.5 70q-4 -25 -11 -57t-32 -109z" />
<glyph unicode="&#xc4;" horiz-adv-x="1226" d="M25 0l467 1409h245l465 -1409h-268l-109 362h-454l-113 -362h-233zM313 1642q0 43 34 75t83 32q47 0 82 -30.5t35 -76.5q0 -43 -35 -73.5t-82 -30.5q-49 0 -83 29.5t-34 74.5zM412 514h376l-145 496q-14 51 -22.5 96t-14.5 70q-4 -25 -11 -57t-32 -109zM682 1642 q0 43 34 75t83 32q47 0 81.5 -30.5t34.5 -76.5q0 -43 -34.5 -73.5t-81.5 -30.5q-49 0 -83 29.5t-34 74.5z" />
<glyph unicode="&#xc5;" horiz-adv-x="1226" d="M25 0l467 1409h245l465 -1409h-268l-109 362h-454l-113 -362h-233zM412 514h376l-145 496q-14 51 -22.5 96t-14.5 70q-4 -25 -11 -57t-32 -109zM442 1679q0 72 49.5 123t122.5 51q70 0 121 -51t51 -123t-50 -122t-122 -50q-74 0 -123 49.5t-49 122.5zM524 1679 q0 -39 25.5 -64.5t64.5 -25.5q37 0 64 26.5t27 63.5t-27 63.5t-64 26.5q-39 0 -64.5 -25.5t-25.5 -64.5z" />
<glyph unicode="&#xc6;" horiz-adv-x="1538" d="M-6 0l590 1409h766v-174h-484l107 -426h377v-172h-338l114 -463h363v-174h-578l-80 360h-456l-144 -360h-237zM434 516h377l-111 531q-8 41 -11 80.5t-5 54.5q-4 -14 -13 -47t-32 -88z" />
<glyph unicode="&#xc7;" horiz-adv-x="993" d="M100 705q0 305 143.5 515t399.5 210q96 0 166 -19.5t125 -60.5l-57 -156q-35 20 -81 34.5t-102 14.5q-168 0 -245.5 -153.5t-77.5 -382.5q0 -227 79.5 -378t243.5 -151q59 0 98 11.5t80 37.5l62 -168q-103 -79 -293 -79q-258 0 -399.5 206.5t-141.5 518.5zM279 -410 l49 84q55 -6 104 -6q104 0 164.5 19.5t60.5 56.5q0 39 -50 48t-201 9l47 78q66 6 116 6q137 0 197.5 -36.5t60.5 -102.5q0 -80 -98 -122t-278 -42h-82q-59 6 -90 8z" />
<glyph unicode="&#xc8;" horiz-adv-x="919" d="M145 0v1409h686v-174h-425v-426h378v-172h-378v-463h425v-174h-686zM215 1798q8 23 36 33t66 10q78 0 144 -39l141 -286h-139z" />
<glyph unicode="&#xc9;" horiz-adv-x="919" d="M145 0v1409h686v-174h-425v-426h378v-172h-378v-463h425v-174h-686zM373 1516l141 286q29 18 71 28.5t77 10.5q80 0 98 -43l-248 -282h-139z" />
<glyph unicode="&#xca;" horiz-adv-x="919" d="M145 0v1409h686v-174h-425v-426h378v-172h-378v-463h425v-174h-686zM186 1567l209 211q35 35 80 34q45 0 80 -34l209 -211l-70 -62l-217 158l-221 -158z" />
<glyph unicode="&#xcb;" horiz-adv-x="919" d="M145 0v1409h689v-174h-426v-426h376v-172h-376v-463h426v-174h-689zM182 1642q0 43 34 75t83 32q47 0 82 -30.5t35 -76.5q0 -43 -35 -73.5t-82 -30.5q-49 0 -83 29.5t-34 74.5zM549 1642q0 43 33.5 75t83.5 32q47 0 81.5 -30.5t34.5 -76.5q0 -43 -34.5 -73.5t-81.5 -30.5 q-49 0 -83 29.5t-34 74.5z" />
<glyph unicode="&#xcc;" horiz-adv-x="561" d="M20 1798q8 23 36 33t67 10q78 0 143 -39l142 -286h-140zM152 0v1409h260v-1409h-260z" />
<glyph unicode="&#xcd;" horiz-adv-x="561" d="M150 0v1409h262v-1409h-262zM154 1516l141 286q29 18 71 28.5t76 10.5q82 0 99 -43l-248 -282h-139z" />
<glyph unicode="&#xce;" horiz-adv-x="561" d="M-6 1567l207 211q35 35 80 34q45 0 79 -34l207 -211l-67 -62l-219 158l-220 -158zM150 0v1409h262v-1409h-262z" />
<glyph unicode="&#xcf;" horiz-adv-x="561" d="M-20 1642q0 43 33.5 75t82.5 32q47 0 82 -30.5t35 -76.5q0 -43 -35 -73.5t-82 -30.5q-49 0 -82.5 29.5t-33.5 74.5zM150 0v1409h260v-1409h-260zM348 1642q0 43 34 75t83 32q47 0 82 -30.5t35 -76.5q0 -43 -35 -73.5t-82 -30.5q-49 0 -83 29.5t-34 74.5z" />
<glyph unicode="&#xd0;" horiz-adv-x="1292" d="M78 682v149h112v519q70 37 170.5 58.5t219.5 21.5q307 0 459.5 -193t152.5 -522q0 -336 -147.5 -535.5t-454.5 -199.5q-262 0 -400 79v623h-112zM444 178q55 -20 140 -20q182 0 264 135t82 426q0 276 -85 410.5t-265 134.5q-78 0 -136 -23v-410h201v-149h-201v-504z" />
<glyph unicode="&#xd1;" horiz-adv-x="1331" d="M145 0v1409h246l504 -856q31 -51 49.5 -90t26.5 -53q0 31 -1 57.5t-1 60.5v31v850h217v-1409h-209l-535 909q-35 59 -51 93t-31 65q2 -31 3.5 -71t1.5 -93v-903h-220zM356 1630q23 55 59 86t103 31q51 0 143.5 -41t120.5 -41q51 0 80 25.5t45 68.5l64 -112 q-20 -51 -55 -81t-101 -30h-20q-47 0 -137.5 40t-133.5 40q-41 0 -66.5 -27.5t-43.5 -68.5z" />
<glyph unicode="&#xd2;" horiz-adv-x="1259" d="M100 705q0 322 130 523.5t401 201.5q268 0 398 -202t130 -523q0 -326 -129 -525.5t-399 -199.5t-400.5 199.5t-130.5 525.5zM360 1798q8 23 36 33t67 10q78 0 143 -39l142 -286h-138zM365 713q0 -238 57 -389.5t209 -151.5t208 151.5t56 389.5q0 240 -57 392t-207 152 t-208 -152.5t-58 -391.5z" />
<glyph unicode="&#xd3;" horiz-adv-x="1259" d="M100 705q0 322 130 523.5t401 201.5q268 0 398 -202t130 -523q0 -326 -129 -525.5t-399 -199.5t-400.5 199.5t-130.5 525.5zM365 713q0 -238 57 -389.5t209 -151.5t208 151.5t56 389.5q0 240 -57 392t-207 152t-208 -152.5t-58 -391.5zM504 1516l143 286q27 18 68 28.5 t78 10.5q82 0 98 -43l-248 -282h-139z" />
<glyph unicode="&#xd4;" horiz-adv-x="1259" d="M100 705q0 322 130 523.5t401 201.5q268 0 398 -202t130 -523q0 -326 -129 -525.5t-399 -199.5t-400.5 199.5t-130.5 525.5zM342 1567l209 211q35 35 80 34q45 0 80 -34l209 -211l-70 -62l-217 158l-221 -158zM365 713q0 -238 57 -389.5t209 -151.5t208 151.5t56 389.5 q0 240 -57 392t-207 152t-208 -152.5t-58 -391.5z" />
<glyph unicode="&#xd5;" horiz-adv-x="1259" d="M100 705q0 322 130 523.5t401 201.5q268 0 398 -202t130 -523q0 -326 -129 -525.5t-399 -199.5t-400.5 199.5t-130.5 525.5zM319 1630q25 55 61 86t103 31q57 0 139.5 -41t122.5 -41q53 0 81 24.5t46 69.5l62 -112q-18 -51 -53 -81t-101 -30h-20q-47 0 -137.5 40 t-135.5 40q-41 0 -65.5 -26.5t-42.5 -69.5zM365 713q0 -238 57 -389.5t209 -151.5t208 151.5t56 389.5q0 240 -57 392t-207 152t-208 -152.5t-58 -391.5z" />
<glyph unicode="&#xd6;" horiz-adv-x="1259" d="M100 705q0 322 130 523.5t401 201.5q268 0 398 -202t130 -523q0 -326 -129 -525.5t-399 -199.5t-400.5 199.5t-130.5 525.5zM330 1642q0 43 33.5 75t82.5 32q47 0 82 -30.5t35 -76.5q0 -43 -35 -73.5t-82 -30.5q-49 0 -82.5 29.5t-33.5 74.5zM365 713q0 -238 57 -389.5 t209 -151.5t208 151.5t56 389.5q0 240 -57 392t-207 152t-208 -152.5t-58 -391.5zM698 1642q0 43 34 75t83 32q47 0 82 -30.5t35 -76.5q0 -43 -35 -73.5t-82 -30.5q-49 0 -83 29.5t-34 74.5z" />
<glyph unicode="&#xd7;" d="M145 348l306 332l-306 334l111 108l303 -327l301 327l113 -110l-305 -332l305 -334l-111 -108l-303 329l-301 -327z" />
<glyph unicode="&#xd8;" horiz-adv-x="1267" d="M104 705q0 322 130.5 523.5t400.5 201.5q102 0 181 -31t142 -92l109 172l76 -47l-121 -191q70 -92 105.5 -233.5t35.5 -302.5q0 -326 -129 -525.5t-399 -199.5q-106 0 -188 31.5t-146 97.5l-111 -175l-75 48l123 194q-66 96 -100 233.5t-34 295.5zM350 713 q0 -88 9.5 -158t33.5 -133l451 706q-35 72 -84 109t-125 37q-156 0 -220.5 -156.5t-64.5 -404.5zM422 299q35 -70 86 -107.5t127 -37.5q158 0 220.5 156.5t62.5 402.5q0 82 -11.5 158t-34.5 137z" />
<glyph unicode="&#xd9;" horiz-adv-x="1220" d="M145 410v999h261v-997q0 -111 61 -172.5t154 -61.5q94 0 153.5 61.5t59.5 172.5v997h241v-999q0 -190 -129 -311.5t-336 -121.5q-209 0 -337 120t-128 313zM369 1798q8 23 35.5 33t66.5 10q78 0 143 -39l142 -286h-138z" />
<glyph unicode="&#xda;" horiz-adv-x="1220" d="M145 410v999h261v-997q0 -111 61 -172.5t154 -61.5q94 0 153.5 61.5t59.5 172.5v997h241v-999q0 -190 -129 -311.5t-336 -121.5q-209 0 -337 120t-128 313zM494 1516l141 286q27 18 67.5 28.5t77.5 10.5q82 0 101 -43l-250 -282h-137z" />
<glyph unicode="&#xdb;" horiz-adv-x="1220" d="M145 410v999h261v-997q0 -111 61 -172.5t154 -61.5q94 0 153.5 61.5t59.5 172.5v997h241v-999q0 -190 -129 -311.5t-336 -121.5q-209 0 -337 120t-128 313zM330 1567l209 211q35 35 77 34q47 0 82 -34l209 -211l-69 -62l-220 158l-219 -158z" />
<glyph unicode="&#xdc;" horiz-adv-x="1220" d="M145 410v999h261v-997q0 -111 61 -172.5t154 -61.5q94 0 153.5 61.5t59.5 172.5v997h241v-999q0 -190 -129 -311.5t-336 -121.5q-209 0 -337 120t-128 313zM322 1642q0 43 33.5 75t82.5 32q47 0 82 -30.5t35 -76.5q0 -43 -35 -73.5t-82 -30.5q-49 0 -82.5 29.5 t-33.5 74.5zM690 1642q0 45 33 76t84 31q47 0 82 -30.5t35 -76.5q0 -43 -35 -73.5t-82 -30.5q-49 0 -83 29.5t-34 74.5z" />
<glyph unicode="&#xdd;" horiz-adv-x="1054" d="M18 1409h281l242 -584l254 584h245l-383 -801v-608h-260v608zM434 1516l141 286q27 18 68 28.5t78 10.5q82 0 100 -43l-250 -282h-137z" />
<glyph unicode="&#xde;" horiz-adv-x="1128" d="M145 0v1409h256v-240q72 20 142 21q252 0 375.5 -120t123.5 -322q0 -201 -144 -318t-441 -117l-56 4v-317h-256zM401 475l48 -4q178 0 261 69.5t83 200.5q0 147 -71 224t-200 77q-61 0 -121 -18v-549z" />
<glyph unicode="&#xdf;" horiz-adv-x="1179" d="M137 0v1061q0 240 110.5 402.5t340.5 162.5q205 0 317.5 -134t112.5 -339q0 -55 -6 -101t-21 -87q-98 -14 -146 -55.5t-48 -118.5q0 -49 27.5 -89t109.5 -95.5t123 -122t41 -165.5q0 -150 -104.5 -241.5t-260.5 -91.5q-74 0 -129 13t-90 40l45 164q25 -16 57.5 -25.5 t73.5 -9.5q70 0 116 44t46 114q0 59 -26.5 97t-104.5 89t-117 111.5t-39 148.5q0 94 53.5 159.5t143.5 94.5q10 31 12 55.5t2 65.5q0 154 -44 232.5t-144 78.5q-106 0 -153.5 -98t-47.5 -281v-1079h-250z" />
<glyph unicode="&#xe0;" horiz-adv-x="1062" d="M80 315q0 201 161.5 290t454.5 118v59q0 100 -56 141.5t-163 41.5q-76 0 -143.5 -17.5t-132.5 -50.5l-58 143q72 35 165 59.5t214 24.5q186 0 297 -89t111 -292v-684q-68 -35 -171.5 -57t-228.5 -22q-223 0 -336.5 87t-113.5 248zM279 1503q8 23 35.5 33t66.5 10 q82 0 143 -37l142 -288h-138zM315 324q0 -104 59.5 -154.5t172.5 -50.5q88 0 149 31v454q-197 -25 -289 -82t-92 -198z" />
<glyph unicode="&#xe1;" horiz-adv-x="1062" d="M80 315q0 201 161.5 290t454.5 118v59q0 100 -56 141.5t-163 41.5q-76 0 -143.5 -17.5t-132.5 -50.5l-58 143q72 35 165 59.5t214 24.5q186 0 297 -89t111 -292v-684q-68 -35 -171.5 -57t-228.5 -22q-223 0 -336.5 87t-113.5 248zM315 324q0 -104 59.5 -154.5 t172.5 -50.5q88 0 149 31v454q-197 -25 -289 -82t-92 -198zM451 1221l143 288q61 37 145 37q82 0 99 -43l-248 -282h-139z" />
<glyph unicode="&#xe2;" horiz-adv-x="1062" d="M80 315q0 201 161.5 290t454.5 118v59q0 100 -56 141.5t-163 41.5q-76 0 -143.5 -17.5t-132.5 -50.5l-58 143q72 35 165 59.5t214 24.5q186 0 297 -89t111 -292v-684q-68 -35 -171.5 -57t-228.5 -22q-223 0 -336.5 87t-113.5 248zM250 1272l209 211q33 35 80 35t79 -35 l209 -211l-69 -62l-217 160l-222 -160zM315 324q0 -104 59.5 -154.5t172.5 -50.5q88 0 149 31v454q-197 -25 -289 -82t-92 -198z" />
<glyph unicode="&#xe3;" horiz-adv-x="1062" d="M80 315q0 201 161.5 290t454.5 118v59q0 100 -56 141.5t-163 41.5q-76 0 -143.5 -17.5t-132.5 -50.5l-58 143q72 35 165 59.5t214 24.5q186 0 297 -89t111 -292v-684q-68 -35 -171.5 -57t-228.5 -22q-223 0 -336.5 87t-113.5 248zM225 1337q25 53 61 84t103 31 q53 0 137 -40t125 -40q51 0 80 25.5t47 68.5l62 -114q-20 -49 -56.5 -79t-99.5 -30h-20q-45 0 -137.5 39t-133.5 39t-66.5 -27.5t-41.5 -68.5zM315 324q0 -104 59.5 -154.5t172.5 -50.5q88 0 149 31v454q-197 -25 -289 -82t-92 -198z" />
<glyph unicode="&#xe4;" horiz-adv-x="1062" d="M80 315q0 201 161.5 290t454.5 118v59q0 100 -56 141.5t-163 41.5q-76 0 -143.5 -17.5t-132.5 -50.5l-58 143q72 35 165 59.5t214 24.5q186 0 297 -89t111 -292v-684q-68 -35 -171.5 -57t-228.5 -22q-223 0 -336.5 87t-113.5 248zM246 1354q0 45 33.5 74.5t80.5 29.5 q51 0 85 -29.5t34 -74.5t-35 -76t-84 -31t-81.5 31t-32.5 76zM315 324q0 -104 59.5 -154.5t172.5 -50.5q88 0 149 31v454q-197 -25 -289 -82t-92 -198zM614 1354q0 45 34 74.5t81 29.5q49 0 83 -29.5t34 -74.5q0 -43 -34 -75t-83 -32t-82 31t-33 76z" />
<glyph unicode="&#xe5;" horiz-adv-x="1062" d="M80 315q0 201 161.5 290t454.5 118v59q0 100 -56 141.5t-163 41.5q-76 0 -143.5 -17.5t-132.5 -50.5l-58 143q72 35 165 59.5t214 24.5q186 0 297 -89t111 -292v-684q-68 -35 -171.5 -57t-228.5 -22q-223 0 -336.5 87t-113.5 248zM315 324q0 -104 59.5 -154.5 t172.5 -50.5q88 0 149 31v454q-197 -25 -289 -82t-92 -198zM371 1386q0 70 51 121.5t123 51.5t122 -50.5t50 -122.5t-49 -123t-123 -51q-72 0 -123 51.5t-51 122.5zM455 1386q0 -39 25.5 -64.5t64.5 -25.5t64.5 26t25.5 64q0 37 -26.5 64t-63.5 27t-63.5 -27t-26.5 -64z" />
<glyph unicode="&#xe6;" horiz-adv-x="1673" d="M80 315q0 193 161.5 285t448.5 123v59q0 98 -60.5 141.5t-164.5 43.5q-72 0 -138.5 -18.5t-127.5 -47.5l-54 141q63 35 156.5 58.5t210.5 23.5q106 0 186 -41t121 -133q51 86 138 130t182 44q440 0 440 -567l-672 -96q0 -152 83 -230.5t216 -78.5q90 0 155.5 15t119.5 42 l61 -152q-68 -37 -155 -57t-211 -20q-115 0 -205 48t-148 134q-45 -88 -126 -135t-208 -47q-203 0 -306 87t-103 248zM305 322q0 -102 51.5 -151.5t145.5 -49.5q80 0 134 50t54 134v293q-197 -23 -291 -80t-94 -196zM893 590l453 67q0 168 -55.5 242t-164.5 74 q-106 0 -169.5 -95.5t-63.5 -287.5z" />
<glyph unicode="&#xe7;" horiz-adv-x="851" d="M92 555q0 266 124 417.5t314 151.5q94 0 156 -21.5t100 -53.5l-53 -142q-27 20 -61.5 33.5t-85.5 13.5q-123 0 -182.5 -103t-59.5 -292q0 -184 62.5 -291.5t175.5 -107.5q51 0 84.5 11t64.5 38l57 -154q-37 -35 -101.5 -55t-158.5 -20q-195 0 -315.5 152.5t-120.5 422.5z M164 -410l49 84q55 -6 104 -6q104 0 165 19.5t61 56.5q0 39 -50.5 48t-201.5 9l47 78q66 6 117 6q137 0 197.5 -36.5t60.5 -102.5q0 -80 -97.5 -122t-279.5 -42h-82q-59 6 -90 8z" />
<glyph unicode="&#xe8;" horiz-adv-x="1099" d="M92 555q0 268 126 418.5t345 150.5t331 -142t112 -423l-676 -98q31 -307 301 -307q90 0 157.5 16t120.5 45l60 -158q-63 -35 -152.5 -56t-212.5 -21q-238 0 -375 149.5t-137 425.5zM283 1503q8 23 35.5 33t66.5 10q82 0 143 -37l142 -288h-138zM315 588l457 69 q0 162 -56.5 238t-160.5 76q-113 0 -176.5 -95.5t-63.5 -287.5z" />
<glyph unicode="&#xe9;" horiz-adv-x="1099" d="M92 555q0 268 126 418.5t345 150.5t331 -142t112 -423l-676 -98q31 -307 301 -307q90 0 157.5 16t120.5 45l60 -158q-63 -35 -152.5 -56t-212.5 -21q-238 0 -375 149.5t-137 425.5zM315 588l457 69q0 162 -56.5 238t-160.5 76q-113 0 -176.5 -95.5t-63.5 -287.5z M463 1221l143 288q61 37 146 37q82 0 98 -43l-248 -282h-139z" />
<glyph unicode="&#xea;" horiz-adv-x="1099" d="M92 555q0 268 126 418.5t345 150.5t331 -142t112 -423l-676 -98q31 -307 301 -307q90 0 157.5 16t120.5 45l60 -158q-63 -35 -152.5 -56t-212.5 -21q-238 0 -375 149.5t-137 425.5zM270 1272l209 211q33 35 80 35t80 -35l209 -211l-70 -62l-219 160l-219 -160zM315 588 l457 69q0 162 -56.5 238t-160.5 76q-113 0 -176.5 -95.5t-63.5 -287.5z" />
<glyph unicode="&#xeb;" horiz-adv-x="1099" d="M92 555q0 268 126 418.5t345 150.5t331 -142t112 -423l-676 -98q31 -307 301 -307q90 0 157.5 16t120.5 45l60 -158q-63 -35 -152.5 -56t-212.5 -21q-238 0 -375 149.5t-137 425.5zM262 1354q0 43 35 73.5t82 30.5q49 0 83 -29.5t34 -74.5q0 -43 -34 -75t-83 -32 q-47 0 -82 31t-35 76zM315 588l457 69q0 162 -56.5 238t-160.5 76q-113 0 -176.5 -95.5t-63.5 -287.5zM631 1354q0 45 33.5 74.5t83.5 29.5q49 0 82.5 -29.5t33.5 -74.5q0 -43 -33.5 -75t-82.5 -32q-47 0 -82 31t-35 76z" />
<glyph unicode="&#xec;" horiz-adv-x="532" d="M6 1503q8 23 36 33t64 10q82 0 144 -37l143 -288h-139zM141 0v1104h250v-1104h-250z" />
<glyph unicode="&#xed;" horiz-adv-x="532" d="M141 0v1104h250v-1104h-250zM141 1221l142 288q66 37 147 37q80 0 98 -43l-249 -282h-138z" />
<glyph unicode="&#xee;" horiz-adv-x="532" d="M-23 1272l209 211q33 35 80 35t80 -35l209 -211l-70 -62l-217 160l-221 -160zM143 0v1104h248v-1104h-248z" />
<glyph unicode="&#xef;" horiz-adv-x="532" d="M-33 1354q0 45 34 74.5t81 29.5q51 0 85 -29.5t34 -74.5t-35 -76t-84 -31t-82 31t-33 76zM141 0v1104h250v-1104h-250zM334 1354q0 45 33.5 74.5t83.5 29.5q49 0 82.5 -29.5t33.5 -74.5q0 -43 -33.5 -75t-82.5 -32q-47 0 -82 31t-35 76z" />
<glyph unicode="&#xf1;" horiz-adv-x="1136" d="M133 0v1044q78 37 190.5 58.5t245.5 21.5q215 0 325 -79.5t110 -253.5v-791h-250v791q0 176 -199 176q-57 0 -94 -7.5t-78 -23.5v-936h-250zM254 1337q25 53 60.5 84t105.5 31q49 0 138 -40t122 -40q53 0 80.5 24.5t46.5 69.5l61 -114q-18 -51 -54 -80t-99 -29h-21 q-45 0 -138 39t-134 39t-65.5 -26.5t-43.5 -69.5z" />
<glyph unicode="&#xf2;" horiz-adv-x="1101" d="M92 551q0 258 117 415.5t342 157.5t342 -156.5t117 -416.5q0 -256 -117 -413.5t-342 -157.5q-221 0 -340 158.5t-119 412.5zM270 1503q8 23 36 33t67 10q82 0 143 -37l141 -288h-139zM340 553q0 -182 46 -292.5t165 -110.5q123 0 167 109.5t44 293.5q0 193 -43 303.5 t-168 110.5q-121 0 -166 -113t-45 -301z" />
<glyph unicode="&#xf3;" horiz-adv-x="1101" d="M92 551q0 258 117 415.5t342 157.5t342 -156.5t117 -416.5q0 -256 -117 -413.5t-342 -157.5q-221 0 -340 158.5t-119 412.5zM340 553q0 -182 46 -292.5t165 -110.5q123 0 167 109.5t44 293.5q0 193 -43 303.5t-168 110.5q-121 0 -166 -113t-45 -301zM451 1221l143 288 q61 37 145 37q82 0 99 -43l-248 -282h-139z" />
<glyph unicode="&#xf4;" horiz-adv-x="1101" d="M92 551q0 258 117 415.5t342 157.5t342 -156.5t117 -416.5q0 -256 -117 -413.5t-342 -157.5q-221 0 -340 158.5t-119 412.5zM262 1272l209 211q33 35 80 35t80 -35l209 -211l-70 -62l-219 160l-219 -160zM340 553q0 -182 46 -292.5t165 -110.5q123 0 167 109.5t44 293.5 q0 193 -43 303.5t-168 110.5q-121 0 -166 -113t-45 -301z" />
<glyph unicode="&#xf5;" horiz-adv-x="1101" d="M92 551q0 258 117 415.5t342 157.5t342 -156.5t117 -416.5q0 -256 -117 -413.5t-342 -157.5q-221 0 -340 158.5t-119 412.5zM242 1337q29 68 68.5 91.5t95.5 23.5q51 0 137 -40t125 -40q51 0 79.5 25.5t45.5 68.5l63 -114q-20 -49 -56.5 -79t-99.5 -30h-20q-45 0 -136 39 t-134 39q-41 0 -67 -27.5t-44 -68.5zM340 553q0 -182 46 -292.5t165 -110.5q123 0 167 109.5t44 293.5q0 193 -43 303.5t-168 110.5q-121 0 -166 -113t-45 -301z" />
<glyph unicode="&#xf6;" horiz-adv-x="1101" d="M92 551q0 258 117 415.5t342 157.5t342 -156.5t117 -416.5q0 -256 -117 -413.5t-342 -157.5q-221 0 -340 158.5t-119 412.5zM250 1354q0 43 34.5 73.5t82.5 30.5q49 0 82.5 -29.5t33.5 -74.5q0 -43 -33.5 -75t-82.5 -32q-47 0 -82 31t-35 76zM340 553q0 -182 46 -292.5 t165 -110.5q123 0 167 109.5t44 293.5q0 193 -43 303.5t-168 110.5q-121 0 -166 -113t-45 -301zM618 1354q0 45 34 74.5t81 29.5q51 0 85 -29.5t34 -74.5t-35 -76t-84 -31t-82 31t-33 76z" />
<glyph unicode="&#xf7;" d="M156 614v129h807v-129h-807zM440 350q0 49 35 84t84 35q47 0 82 -35t35 -84q0 -47 -35 -82t-82 -35q-49 0 -84 33t-35 84zM440 1008q0 49 35 83.5t84 34.5q47 0 82 -34.5t35 -83.5q0 -47 -35 -82t-82 -35q-49 0 -84 32.5t-35 84.5z" />
<glyph unicode="&#xf8;" horiz-adv-x="1110" d="M92 551q0 256 119 414.5t342 158.5q74 0 134.5 -18.5t111.5 -52.5l90 157l63 -36l-96 -164q162 -156 162 -459q0 -254 -119 -412.5t-344 -158.5q-150 0 -250 75l-94 -161l-64 34l101 172q-78 76 -117 192t-39 259zM322 555q0 -76 9 -137.5t31 -116.5l351 602 q-29 41 -67 62.5t-91 21.5q-127 0 -180 -122t-53 -310zM397 217q29 -41 67 -62.5t91 -21.5q127 0 179 120t52 302q0 76 -9 143.5t-32 120.5z" />
<glyph unicode="&#xf9;" d="M133 350v754h250v-768q0 -86 45 -136t141 -50q100 0 166 36v918h250v-1038q-72 -39 -181.5 -64t-242.5 -25q-217 0 -322.5 94.5t-105.5 278.5zM299 1503q8 23 35.5 33t66.5 10q82 0 144 -37l141 -288h-139z" />
<glyph unicode="&#xfa;" d="M133 350v754h250v-768q0 -86 45 -136t141 -50q100 0 166 36v918h250v-1038q-72 -39 -181.5 -64t-242.5 -25q-217 0 -322.5 94.5t-105.5 278.5zM461 1221l141 288q66 37 148 37t98 -43l-248 -282h-139z" />
<glyph unicode="&#xfb;" d="M133 350v754h250v-768q0 -86 45 -136t141 -50q100 0 166 36v918h250v-1038q-72 -39 -181.5 -64t-242.5 -25q-217 0 -322.5 94.5t-105.5 278.5zM272 1272l207 211q33 35 80 35t80 -35l209 -211l-70 -62l-217 160l-221 -160z" />
<glyph unicode="&#xfc;" d="M133 350v754h250v-768q0 -86 45 -136t141 -50q100 0 166 36v918h250v-1038q-72 -39 -181.5 -64t-242.5 -25q-217 0 -322.5 94.5t-105.5 278.5zM258 1354q0 43 35 73.5t82 30.5q49 0 83 -29.5t34 -74.5q0 -43 -34 -75t-83 -32q-47 0 -82 31t-35 76zM627 1354 q0 45 33.5 74.5t82.5 29.5t83 -29.5t34 -74.5q0 -43 -34 -75t-83 -32q-47 0 -81.5 31t-34.5 76z" />
<glyph unicode="&#xfd;" horiz-adv-x="1034" d="M43 1104h266l219 -825l232 825h235l-503 -1544h-267l185 440zM426 1221l141 288q66 37 148 37t98 -43l-248 -282h-139z" />
<glyph unicode="&#xfe;" horiz-adv-x="1126" d="M133 -440v2048h248v-533q86 45 192 45q211 0 336 -143t125 -399q0 -274 -138 -432t-355 -158q-88 0 -158 20v-448h-250zM383 152q6 -2 41 -9.5t68 -7.5q154 0 224 117t70 305q0 203 -65.5 309.5t-208.5 106.5q-68 0 -129 -29v-792z" />
<glyph unicode="&#xff;" horiz-adv-x="1034" d="M43 1104h266l219 -825l232 825h235l-503 -1544h-267l185 440zM231 1354q0 43 35 73.5t82 30.5q49 0 83 -29.5t34 -74.5q0 -43 -34 -75t-83 -32q-47 0 -82 31t-35 76zM600 1354q0 45 34 74.5t81 29.5q51 0 85 -29.5t34 -74.5t-35 -76t-84 -31t-82 31t-33 76z" />
<glyph unicode="&#x152;" horiz-adv-x="1568" d="M100 705q0 334 144.5 529.5t429.5 195.5q47 0 92 -6.5t80 -14.5h635v-174h-426v-426h379v-172h-379v-461h426v-176h-635q-29 -8 -71 -14t-99 -6q-285 0 -430.5 196.5t-145.5 528.5zM367 709q0 -236 70.5 -395.5t248.5 -159.5q37 0 72 4t53 8v1085q-18 6 -57 11.5t-68 5.5 q-180 0 -249.5 -160t-69.5 -399z" />
<glyph unicode="&#x153;" horiz-adv-x="1738" d="M92 551q0 258 117 415.5t338 157.5q213 0 321 -200q53 98 142.5 149t193.5 51q440 0 441 -573l-668 -80q18 -184 100 -251.5t197 -67.5q94 0 155.5 15t118.5 46l60 -156q-70 -37 -149 -57t-216 -20q-123 0 -218 55t-151 166q-49 -106 -132 -163.5t-195 -57.5 q-221 0 -338 157.5t-117 413.5zM334 555q0 -174 44 -289.5t169 -115.5t168 114.5t43 290.5q0 184 -41 298t-170 114q-98 0 -155.5 -89.5t-57.5 -322.5zM963 600l448 53q0 168 -56.5 247t-162.5 79t-167.5 -94t-61.5 -285z" />
<glyph unicode="&#x178;" horiz-adv-x="1054" d="M18 1409h281l242 -584l254 584h245l-383 -801v-608h-260v608zM240 1642q0 45 32.5 76t81.5 31t84 -30.5t35 -76.5q0 -43 -35 -73.5t-84 -30.5t-81.5 28.5t-32.5 75.5zM608 1642q0 45 33 76t82 31q47 0 82 -30.5t35 -76.5q0 -43 -35 -73.5t-82 -30.5q-49 0 -82 28.5 t-33 75.5z" />
<glyph unicode="&#x2000;" horiz-adv-x="926" />
<glyph unicode="&#x2001;" horiz-adv-x="1853" />
<glyph unicode="&#x2002;" horiz-adv-x="926" />
<glyph unicode="&#x2003;" horiz-adv-x="1853" />
<glyph unicode="&#x2004;" horiz-adv-x="617" />
<glyph unicode="&#x2005;" horiz-adv-x="463" />
<glyph unicode="&#x2006;" horiz-adv-x="308" />
<glyph unicode="&#x2007;" horiz-adv-x="308" />
<glyph unicode="&#x2008;" horiz-adv-x="231" />
<glyph unicode="&#x2009;" horiz-adv-x="370" />
<glyph unicode="&#x200a;" horiz-adv-x="102" />
<glyph unicode="&#x2010;" horiz-adv-x="716" d="M109 594v190h499v-190h-499z" />
<glyph unicode="&#x2011;" horiz-adv-x="716" d="M109 594v190h499v-190h-499z" />
<glyph unicode="&#x2012;" horiz-adv-x="716" d="M109 594v190h499v-190h-499z" />
<glyph unicode="&#x2013;" horiz-adv-x="839" d="M0 608v158h840v-158h-840z" />
<glyph unicode="&#x2014;" horiz-adv-x="1679" d="M0 618v136h1679v-136h-1679z" />
<glyph unicode="&#x2018;" horiz-adv-x="587" d="M102 1059l285 549h129l-174 -549q-23 -33 -57.5 -52.5t-87.5 -19.5q-45 0 -66.5 19.5t-28.5 52.5z" />
<glyph unicode="&#x2019;" horiz-adv-x="587" d="M72 997l174 549q23 33 57.5 52.5t85.5 19.5q45 0 66.5 -20.5t29.5 -51.5l-284 -549h-129z" />
<glyph unicode="&#x201a;" horiz-adv-x="587" d="M72 -346l174 549q23 33 57.5 52t87.5 19q43 0 64.5 -19t29.5 -52l-284 -549h-129z" />
<glyph unicode="&#x201c;" horiz-adv-x="987" d="M102 1059l285 549h129l-174 -549q-23 -33 -57.5 -52.5t-87.5 -19.5q-45 0 -66.5 19.5t-28.5 52.5zM504 1059l282 549h129l-172 -549q-23 -31 -59.5 -51.5t-85.5 -20.5q-45 0 -66.5 19.5t-27.5 52.5z" />
<glyph unicode="&#x201d;" horiz-adv-x="987" d="M72 997l174 549q23 33 57.5 52.5t85.5 19.5q45 0 66.5 -20.5t29.5 -51.5l-284 -549h-129zM473 997l172 549q23 31 59.5 51.5t86.5 20.5q45 0 66.5 -20.5t27.5 -51.5l-285 -549h-127z" />
<glyph unicode="&#x201e;" horiz-adv-x="987" d="M72 -346l174 549q23 33 57.5 52t85.5 19q45 0 66.5 -19t29.5 -52l-284 -549h-129zM473 -346l172 549q23 31 59.5 51t86.5 20q45 0 66.5 -19t27.5 -52l-285 -549h-127z" />
<glyph unicode="&#x2022;" horiz-adv-x="733" d="M125 735q0 102 69.5 172t172.5 70q98 0 169.5 -69.5t71.5 -172.5q0 -100 -70.5 -170.5t-170.5 -70.5t-171 70.5t-71 170.5z" />
<glyph unicode="&#x2026;" horiz-adv-x="1808" d="M152 137q0 63 43 106.5t106 43.5t106.5 -43t43.5 -107q0 -61 -44.5 -105t-105.5 -44t-105 44t-44 105zM754 137q0 63 43 106.5t108 43.5q61 0 105.5 -44t44.5 -106q0 -61 -44.5 -105t-105.5 -44t-106 43t-45 106zM1358 137q0 63 43 106.5t106 43.5q61 0 105.5 -44 t44.5 -106q0 -61 -44.5 -105t-105.5 -44t-105 44t-44 105z" />
<glyph unicode="&#x202f;" horiz-adv-x="370" />
<glyph unicode="&#x2039;" horiz-adv-x="675" d="M102 684l308 465l135 -82l-252 -383l252 -383l-135 -82z" />
<glyph unicode="&#x203a;" horiz-adv-x="675" d="M131 301l250 383l-250 383l135 82l307 -465l-307 -465z" />
<glyph unicode="&#x205f;" horiz-adv-x="463" />
<glyph unicode="&#x2122;" horiz-adv-x="1601" d="M84 1313v96h514v-96h-192v-611h-127v611h-195zM629 702l98 707h168l160 -567l155 567h170l97 -707h-125l-68 578l-172 -578h-119l-174 578l-65 -578h-125z" />
<glyph unicode="&#x25fc;" horiz-adv-x="1105" d="M0 0v1106h1106v-1106h-1106z" />
</font>
</defs>
</svg>
